<svg xmlns="http://www.w3.org/2000/svg" version="1.0" width="144" height="18" viewBox="0 0 128 16" xml:space="preserve"><g><path d="m-22.949-5.576 4.525 4.525-22.627 22.627-4.525-4.525Zm19.2 0L.776-1.051l-22.627 22.627-4.526-4.525Zm19.2 0 4.525 4.525-22.627 22.627-4.525-4.525Zm19.2 0 4.525 4.525-22.627 22.627-4.525-4.525Zm19.2 0 4.525 4.525-22.627 22.627-4.526-4.525Zm38.4 0 4.525 4.525-22.627 22.627-4.525-4.525Zm-19.2 0 4.525 4.525-22.627 22.627-4.526-4.525Zm38.4 0 4.525 4.525-22.627 22.627-4.526-4.525Zm19.2 0 4.525 4.525-22.627 22.627-4.525-4.525Zm19.2 0 4.525 4.525-22.627 22.627-4.525-4.525Z"/><animateTransform attributeName="transform" type="translate" from="0 0" to="-19 0" dur="480ms" repeatCount="indefinite"/></g></svg>