<svg width="50" height="47" viewBox="0 0 50 47" fill="none" xmlns="http://www.w3.org/2000/svg">
<path d="M24.5194 1.48721C24.6579 1.00444 25.3421 1.00444 25.4806 1.48721L30.0643 17.4589C30.2542 18.1206 30.8701 18.5681 31.5581 18.5443L48.1645 17.9681C48.6665 17.9506 48.8779 18.6013 48.4616 18.8822L34.688 28.1771C34.1174 28.5622 33.8821 29.2862 34.1174 29.9332L39.7971 45.5488C39.9687 46.0208 39.4153 46.4229 39.0194 46.1138L25.9232 35.8866C25.3807 35.4629 24.6193 35.4629 24.0768 35.8866L10.9806 46.1138C10.5847 46.4229 10.0313 46.0208 10.2029 45.5488L15.8826 29.9332C16.1179 29.2862 15.8826 28.5622 15.312 28.1771L1.53844 18.8822C1.12211 18.6013 1.33352 17.9506 1.83546 17.9681L18.4419 18.5443C19.1299 18.5681 19.7458 18.1206 19.9357 17.4589L24.5194 1.48721Z" fill="white" stroke="#E0DAD1"/>
</svg>
